<?xml version="1.0" encoding="UTF-8"?> <svg xmlns="http://www.w3.org/2000/svg" width="810" height="674" viewBox="0 0 810 674" fill="none"> <mask id="mask0" mask-type="alpha" maskUnits="userSpaceOnUse" x="0" y="0" width="842" height="674"> <rect width="841.929" height="673.534" transform="matrix(1 0 0 -1 0 673.534)" fill="#C4C4C4"></rect> </mask> <g mask="url(#mask0)"> <path d="M1185.59 321.274C1087.47 125.419 829.975 -78.4153 642.894 60.0424C469.439 188.415 620.114 295.328 496.32 456.759C372.526 618.191 114.226 485.37 13.9621 676.423C-44.2342 787.315 -5.79921 940.832 123.939 1040.24C253.676 1139.65 474.717 1184.95 781.731 1079.41C1071.74 979.713 1186.96 818.624 1222.55 668.237C1258.14 517.85 1214.1 378.164 1185.59 321.274Z" stroke="#EBEBEB" stroke-miterlimit="10"></path> <path d="M785.058 1058.48C1051.19 967.432 1158.02 819.993 1191.56 681.709C1224.65 544.288 1185.27 416.261 1159.19 362.745C1069.86 180.881 832.767 -8.68581 657.571 114.026C495.804 227.33 627.132 325.047 512.108 472.802C508.819 476.997 505.436 480.985 501.965 484.777C407.987 587.546 248.432 545.708 141.894 607.535C112.973 624.319 87.8456 648.612 69.1263 685.349C15.2821 791.023 52.0196 932.957 172.551 1024.12C293.781 1115.59 500.009 1155.72 785.058 1058.48Z" stroke="#EBEBEB" stroke-miterlimit="10"></path> <path d="M788.385 1037.55C1030.64 955.15 1129.08 821.361 1160.56 695.18C1191.16 570.726 1156.61 454.28 1132.79 404.217C1052.8 236.076 835.605 61.0434 672.247 168.009C522.211 266.252 634.615 355.137 527.895 488.845C524.819 492.698 521.635 496.348 518.387 499.838C430.769 594.174 285.905 561.377 189.971 621.07C163.776 637.37 141.017 660.306 124.291 694.277C74.8171 794.756 109.838 925.084 221.165 1007.99C333.887 1091.53 525.301 1126.5 788.385 1037.55Z" stroke="#EBEBEB" stroke-miterlimit="10"></path> <path d="M791.714 1016.62C1010.09 942.867 1100.45 822.811 1129.57 708.651C1157.99 597.243 1127.86 492.346 1106.39 445.689C1035.42 291.437 838.504 130.778 686.925 221.993C548.675 305.185 641.827 385.023 543.682 504.887C540.812 508.392 537.833 511.711 534.809 514.897C453.551 600.801 323.377 577.078 238.048 634.604C214.579 650.427 194.206 672.013 179.455 703.204C134.379 798.517 167.657 917.209 269.777 991.871C373.993 1067.47 550.594 1097.27 791.714 1016.62Z" stroke="#EBEBEB" stroke-miterlimit="10"></path> <path d="M795.041 995.696C989.67 930.99 1071.6 824.205 1098.58 722.12C1124.59 623.704 1099.1 530.418 1079.99 487.158C1018 346.823 841.483 200.526 701.602 275.974C575.214 344.143 649.002 414.887 559.47 520.927C556.803 524.085 554.032 527.071 551.231 529.955C476.333 607.426 360.85 592.82 286.126 648.137C265.38 663.494 247.417 683.733 234.62 712.129C193.978 802.312 225.306 909.572 318.391 975.746C413.924 1043.66 576.037 1068.51 795.041 995.696Z" stroke="#EBEBEB" stroke-miterlimit="10"></path> <path d="M798.369 974.767C969.138 918.773 1042.74 825.6 1067.59 735.591C1091.17 650.165 1070.33 568.5 1053.59 528.629C1000.54 402.243 844.569 270.316 716.278 329.957C601.85 383.154 656.13 444.728 575.257 536.97C572.793 539.779 570.23 542.435 567.653 545.015C499.114 614.055 398.334 608.619 334.203 661.672C316.183 676.579 300.654 695.472 289.784 721.057C253.631 806.152 283.101 901.738 367.004 959.623C454.006 1019.65 601.356 1039.37 798.369 974.767Z" stroke="#EBEBEB" stroke-miterlimit="10"></path> <path d="M801.696 953.839C948.596 906.531 1013.86 826.993 1036.6 749.062C1057.73 676.623 1041.54 606.592 1027.19 570.101C983 457.703 847.796 340.192 730.955 383.942C628.614 422.261 663.196 474.53 591.044 553.014C588.783 555.473 586.429 557.798 584.076 560.076C521.896 620.683 435.845 624.492 382.279 675.207C366.991 689.682 353.925 707.23 344.948 729.985C313.364 810.045 340.911 893.889 415.617 943.5C494.098 995.62 626.665 1010.21 801.696 953.839Z" stroke="#EBEBEB" stroke-miterlimit="10"></path> <path d="M805.023 932.911C928.041 894.251 984.95 828.383 1005.61 762.533C1024.26 703.076 1012.72 644.7 1000.79 611.572C965.365 513.211 849.547 404.594 745.631 437.924C656.937 466.372 670.178 504.269 606.83 569.056C604.768 571.164 602.627 573.16 600.496 575.137C544.675 627.311 473.406 640.455 430.354 688.743C417.812 702.81 407.237 719.01 400.111 738.913C373.222 814.003 398.736 886.019 464.229 927.378C534.209 971.57 651.963 981.012 805.023 932.911Z" stroke="#EBEBEB" stroke-miterlimit="10"></path> <circle r="10" transform="matrix(-1 8.74228e-08 8.74228e-08 1 742 139)" fill="#EBEBEB"></circle> <circle r="5.63571" transform="matrix(-1 8.74228e-08 8.74228e-08 1 269.658 617.444)" fill="#EBEBEB"></circle> </g> </svg> 